<?xml version="1.0" encoding="utf-8"?>
<!-- Generator: Adobe Illustrator 24.3.0, SVG Export Plug-In . SVG Version: 6.00 Build 0)  -->
<svg version="1.1" id="Layer_4" xmlns="http://www.w3.org/2000/svg" xmlns:xlink="http://www.w3.org/1999/xlink" x="0px" y="0px"
	 viewBox="0 0 190.9 59.9" style="enable-background:new 0 0 190.9 59.9;" xml:space="preserve">
<style type="text/css">
	.st0{fill:#E52147;}
</style>
<g>
	<path class="st0" d="M153.1,32.2c6.4-2.6,14.2-1.2,19.6,3.5l-2.5,2.5C166.2,33.3,159.4,31,153.1,32.2"/>
	<path class="st0" d="M153.6,28.9c5.1-4.5,12.8-5.7,19.2-3.2l-1.5,3.2c-2.5-1.5-5.5-2.4-8.6-2.4C159.6,26.6,156.4,27.4,153.6,28.9"
		/>
	<path class="st0" d="M151.8,27.1c3.1-6.6,10.3-10.9,17.7-10.7l-0.3,3.6C162.7,18.7,155.7,21.6,151.8,27.1"/>
	<path class="st0" d="M150.1,25.5c0.4-7.5,5.8-14.4,13.1-16.8l0.9,3.5C157.4,13.2,151.7,18.7,150.1,25.5"/>
	<path class="st0" d="M148,23.4c-1.6-7.1,0.9-15,6.7-19.8c0,0,2,2.9,2,2.9C150.8,9.5,147,16.7,148,23.4"/>
	<path class="st0" d="M144.2,20.1c-3-5.6-2.7-12.8,0.7-18.4l2.9,2.1c-1.8,2.1-3.2,4.7-3.8,7.5C143.4,14.1,143.4,17.2,144.2,20.1"/>
	<path class="st0" d="M142.1,22.2c-5.4-4.5-8.3-11.8-7.1-18.9c0,0,3.4,0.9,3.4,0.9C136,10.1,137.5,17.7,142.1,22.2"/>
	<path class="st0" d="M140.5,23.9c-7.1-2.1-12.8-8.2-14.1-15.8l3.6-0.3C129.6,14.6,134.1,21.5,140.5,23.9"/>
	<path class="st0" d="M138.7,25.7c-7.5,0.9-15.2-3.3-18.8-10l3.2-1.5C125.3,20.6,131.8,25.3,138.7,25.7"/>
	<path class="st0" d="M135.9,28.5c-6.4,2.6-14.2,1.2-19.6-3.5l2.5-2.5C122.8,27.4,129.6,29.7,135.9,28.5"/>
	<path class="st0" d="M135.4,31.8c-5.1,4.5-12.8,5.7-19.2,3.2l1.5-3.2c2.5,1.5,5.5,2.4,8.6,2.4C129.4,34.1,132.6,33.4,135.4,31.8"/>
	<path class="st0" d="M137.2,33.6c-3.1,6.6-10.3,11-17.8,10.8l0.3-3.6C126.3,42.1,133.3,39.1,137.2,33.6"/>
	<path class="st0" d="M138.9,35.2c-0.4,7.5-5.8,14.4-13.1,16.8l-0.9-3.5C131.6,47.5,137.3,42,138.9,35.2"/>
	<path class="st0" d="M141,37.3c1.6,7.1-0.9,15-6.7,19.8l-2-2.9C138.2,51.2,142,44,141,37.3"/>
	<path class="st0" d="M144.8,40.6c3,5.6,2.7,12.8-0.7,18.4l-2.9-2.1c1.8-2.1,3.2-4.7,3.8-7.5C145.6,46.6,145.6,43.5,144.8,40.6"/>
	<path class="st0" d="M146.9,38.5c5.4,4.5,8.3,11.8,7.1,18.9l-3.4-0.9C153,50.6,151.5,43,146.9,38.5"/>
	<path class="st0" d="M148.5,36.8c7.1,2.1,12.8,8.2,14.1,15.8l-3.6,0.3C159.4,46.2,154.9,39.2,148.5,36.8"/>
	<path class="st0" d="M150.3,35c7.5-0.9,15.2,3.3,18.8,10l-3.2,1.5C163.6,40.1,157.2,35.4,150.3,35"/>
	<path d="M84.5,25.9c2.1,0,3.9-0.9,5.2-2.3c1.3,1.4,3.1,2.3,5.2,2.3h1c3.9,0,7.1-3.2,7.1-7.1V9.1h-3.7v9.7c0,1.9-1.5,3.4-3.4,3.4h-1
		c-1.9,0-3.4-1.5-3.4-3.4v-4.5h0v-3.9h-3.7v8.4c0,1.9-1.5,3.4-3.4,3.4h-1c-1.9,0-3.4-1.5-3.4-3.4v-3.4v-3.7h-3.7v7.1
		c0,1.9-1.5,3.4-3.4,3.4h-5.8c-1.9,0-3.4-1.5-3.4-3.4v0V9.2h-3.7v6.3v3.4c0,0,0,0,0,0c0,1.9-1.5,3.4-3.4,3.4h-33V3.4h-3.7v22.5h36.7
		c2.1,0,3.9-0.9,5.2-2.3c1.3,1.4,3.2,2.3,5.2,2.3H73c2.1,0,3.9-0.9,5.2-2.3c1.3,1.4,3.1,2.3,5.2,2.3H84.5z"/>
	<path d="M29.3,45.5l-3.4-0.8c-1.2-0.3-2.1-0.6-2.5-1c-0.5-0.4-0.7-0.8-0.7-1.4c0-0.8,0.3-1.4,1-1.8c0.7-0.4,1.6-0.7,2.9-0.7
		c2.3,0,4.2,0.7,5.6,2.2l0.1,0.1l2.4-2.3l0.1-0.1l0-0.1c-0.8-1-1.9-1.9-3.3-2.4c-1.3-0.6-2.9-0.9-4.6-0.9c-2.4,0-4.3,0.6-5.7,1.7
		c-1.4,1.1-2.1,2.6-2.1,4.3c0,1.4,0.5,2.6,1.5,3.5c1,0.9,2.5,1.6,4.5,2.1l3.1,0.7c1.1,0.3,2,0.6,2.5,1c0.5,0.4,0.7,0.9,0.7,1.5
		c0,0.8-0.4,1.4-1.1,1.9C29.3,53.7,28.3,54,27,54c-1.3,0-2.5-0.3-3.6-0.7c-1.1-0.5-2-1.2-2.7-2.2l-0.1-0.1l-2.5,2.2l0,0.1
		c0.8,1.3,2,2.3,3.5,3.1c1.6,0.8,3.4,1.1,5.3,1.1c2.5,0,4.5-0.6,5.8-1.7C34.3,54.5,35,53,35,51c0-1.4-0.5-2.6-1.3-3.5
		C32.7,46.6,31.3,46,29.3,45.5"/>
	<path d="M53.3,40.2c-0.6-1.1-1.5-2-2.6-2.7c-1.3-0.7-2.8-1.1-4.4-1.1c-1.8,0-3.4,0.4-4.8,1.3c-1.4,0.9-2.6,2.1-3.4,3.7
		c-0.8,1.6-1.2,3.4-1.2,5.4c0,2,0.4,3.8,1.2,5.4c0.8,1.6,1.9,2.8,3.4,3.7c1.4,0.9,3,1.3,4.8,1.3c1.6,0,3.1-0.4,4.4-1.1
		c1.2-0.7,2.1-1.6,2.6-2.7v3.2h3.8V37h-3.8V40.2z M51.7,51.9c-1.1,1.3-2.7,1.9-4.5,1.9c-1.9,0-3.4-0.6-4.6-1.9
		c-1.2-1.3-1.7-2.9-1.7-5c0-2,0.6-3.7,1.7-5c1.2-1.3,2.7-1.9,4.6-1.9c1.9,0,3.4,0.6,4.5,1.9c1.1,1.3,1.7,3,1.7,5
		C53.5,48.9,52.9,50.6,51.7,51.9"/>
	<path d="M72.5,36.5c-1.6,0-2.9,0.3-4.1,1c-1.1,0.6-1.9,1.4-2.5,2.5v-3h-3.8v19.8h3.8V45.1c0-1.6,0.5-2.8,1.6-3.8
		c1.1-0.9,2.4-1.4,4.1-1.4c1.4,0,2.5,0.4,3.2,1.2c0.7,0.8,1,2.1,1,3.8v11.8h3.8V44.1c0-2.4-0.6-4.3-1.9-5.6
		C76.4,37.1,74.7,36.5,72.5,36.5"/>
	<path d="M99.4,37v3.2c-0.6-1.1-1.5-2-2.6-2.7c-1.3-0.7-2.8-1.1-4.4-1.1c-1.8,0-3.4,0.4-4.8,1.3c-1.4,0.9-2.6,2.1-3.4,3.7
		c-0.8,1.6-1.2,3.4-1.2,5.4c0,2,0.4,3.8,1.2,5.4c0.8,1.6,1.9,2.8,3.4,3.7c1.4,0.9,3,1.3,4.8,1.3c1.6,0,3.1-0.4,4.4-1.1
		c1.2-0.7,2.1-1.6,2.6-2.7v3.2h3.8V37H99.4z M97.8,51.9c-1.1,1.3-2.7,1.9-4.5,1.9c-1.9,0-3.4-0.6-4.6-1.9c-1.2-1.3-1.7-2.9-1.7-5
		c0-2,0.6-3.7,1.7-5c1.2-1.3,2.7-1.9,4.6-1.9c1.9,0,3.4,0.6,4.5,1.9c1.1,1.3,1.7,3,1.7,5C99.5,48.9,98.9,50.6,97.8,51.9"/>
	<rect x="40.5" y="8.4" transform="matrix(0.7071 -0.7071 0.7071 0.7071 5.0718 33.0485)" width="3.9" height="3.9"/>
</g>
</svg>
